# This file uses centimeters as units for non-parametric coordinates.

mtllib Glass Cylinder.mtl
g default
v 0.890768 1.000000 -0.189338
v 0.910667 1.000000 0.000000
v 0.886921 1.000000 -0.188521
v 0.906739 1.000000 0.000000
vt 0.601890 0.865407
vt 0.604167 0.843750
vt 0.550945 0.854579
vt 0.552083 0.843750
vn 0.000091 1.000000 -0.000011
vn 0.000091 1.000000 -0.000011
vn 0.000091 1.000000 -0.000011
vn 0.000091 1.000000 -0.000011
s off
g pCylinder1
usemtl initialShadingGroup
f 2/2/1 1/1/2 3/3/3 4/4/4
g default
v 0.876172 -1.000000 -0.138772
v 0.843676 -1.000000 -0.274127
v 0.790405 -1.000000 -0.402731
v 0.717673 -1.000000 -0.521420
v 0.627270 -1.000000 -0.627269
v 0.521420 -1.000000 -0.717672
v 0.402732 -1.000000 -0.790405
v 0.274127 -1.000000 -0.843676
v 0.138773 -1.000000 -0.876172
v 0.000000 -1.000000 -0.887093
v -0.138771 -1.000000 -0.876171
v -0.274126 -1.000000 -0.843676
v -0.402732 -1.000000 -0.790406
v -0.521420 -1.000000 -0.717672
v -0.627269 -1.000000 -0.627269
v -0.717672 -1.000000 -0.521421
v -0.790405 -1.000000 -0.402732
v -0.843676 -1.000000 -0.274127
v -0.876170 -1.000000 -0.138772
v -0.887093 -1.000000 -0.000000
v -0.876171 -1.000000 0.138772
v -0.843676 -1.000000 0.274127
v -0.790405 -1.000000 0.402732
v -0.717673 -1.000000 0.521420
v -0.627269 -1.000000 0.627269
v -0.521420 -1.000000 0.717673
v -0.402732 -1.000000 0.790405
v -0.274127 -1.000000 0.843676
v -0.138772 -1.000000 0.876171
v -0.000000 -1.000000 0.887093
v 0.138772 -1.000000 0.876171
v 0.274127 -1.000000 0.843676
v 0.402732 -1.000000 0.790405
v 0.521420 -1.000000 0.717673
v 0.627269 -1.000000 0.627269
v 0.717673 -1.000000 0.521420
v 0.790405 -1.000000 0.402732
v 0.843675 -1.000000 0.274127
v 0.876171 -1.000000 0.138772
v 0.887093 -1.000000 0.000000
v 0.987689 -1.000000 -0.156434
v 0.951057 -1.000000 -0.309017
v 0.891007 -1.000000 -0.453991
v 0.809018 -1.000000 -0.587785
v 0.707107 -1.000000 -0.707107
v 0.587786 -1.000000 -0.809017
v 0.453991 -1.000000 -0.891007
v 0.309017 -1.000000 -0.951057
v 0.156435 -1.000000 -0.987689
v 0.000000 -1.000000 -1.000001
v -0.156434 -1.000000 -0.987689
v -0.309017 -1.000000 -0.951057
v -0.453991 -1.000000 -0.891007
v -0.587785 -1.000000 -0.809018
v -0.707107 -1.000000 -0.707107
v -0.809017 -1.000000 -0.587786
v -0.891007 -1.000000 -0.453991
v -0.951057 -1.000000 -0.309017
v -0.987689 -1.000000 -0.156435
v -1.000000 -1.000000 -0.000000
v -0.987689 -1.000000 0.156434
v -0.951057 -1.000000 0.309017
v -0.891007 -1.000000 0.453990
v -0.809017 -1.000000 0.587785
v -0.707107 -1.000000 0.707107
v -0.587785 -1.000000 0.809017
v -0.453991 -1.000000 0.891007
v -0.309017 -1.000000 0.951057
v -0.156435 -1.000000 0.987689
v -0.000000 -1.000000 1.000000
v 0.156434 -1.000000 0.987689
v 0.309017 -1.000000 0.951057
v 0.453991 -1.000000 0.891007
v 0.587785 -1.000000 0.809017
v 0.707107 -1.000000 0.707107
v 0.809017 -1.000000 0.587785
v 0.891007 -1.000000 0.453991
v 0.951057 -1.000000 0.309017
v 0.987688 -1.000000 0.156435
v 1.000000 -1.000000 -0.000000
v 0.987689 1.000000 -0.156434
v 0.951057 1.000000 -0.309017
v 0.891007 1.000000 -0.453991
v 0.809018 1.000000 -0.587785
v 0.707107 1.000000 -0.707107
v 0.587786 1.000000 -0.809017
v 0.453991 1.000000 -0.891007
v 0.309017 1.000000 -0.951057
v 0.156435 1.000000 -0.987689
v 0.000000 1.000000 -1.000001
v -0.156434 1.000000 -0.987689
v -0.309017 1.000000 -0.951057
v -0.453991 1.000000 -0.891007
v -0.587785 1.000000 -0.809018
v -0.707107 1.000000 -0.707107
v -0.809017 1.000000 -0.587786
v -0.891007 1.000000 -0.453991
v -0.951057 1.000000 -0.309017
v -0.987689 1.000000 -0.156435
v -1.000000 1.000000 -0.000000
v -0.987689 1.000000 0.156434
v -0.951057 1.000000 0.309017
v -0.891007 1.000000 0.453990
v -0.809017 1.000000 0.587785
v -0.707107 1.000000 0.707107
v -0.587786 1.000000 0.809017
v -0.453991 1.000000 0.891007
v -0.309017 1.000000 0.951057
v -0.156435 1.000000 0.987689
v -0.000000 1.000000 1.000000
v 0.156434 1.000000 0.987689
v 0.309017 1.000000 0.951057
v 0.453991 1.000000 0.891007
v 0.587785 1.000000 0.809017
v 0.707107 1.000000 0.707107
v 0.809017 1.000000 0.587785
v 0.891007 1.000000 0.453991
v 0.951057 1.000000 0.309017
v 0.987688 1.000000 0.156434
v 1.000000 1.000000 0.000000
v 0.874724 1.000000 -0.138542
v 0.842281 1.000000 -0.273674
v 0.789100 1.000000 -0.402066
v 0.716488 1.000000 -0.520558
v 0.626233 1.000000 -0.626233
v 0.520559 1.000000 -0.716487
v 0.402067 1.000000 -0.789100
v 0.273674 1.000000 -0.842281
v 0.138543 1.000000 -0.874724
v 0.000000 1.000000 -0.885628
v -0.138542 1.000000 -0.874724
v -0.273674 1.000000 -0.842281
v -0.402066 1.000000 -0.789100
v -0.520558 1.000000 -0.716488
v -0.626233 1.000000 -0.626233
v -0.716487 1.000000 -0.520559
v -0.789100 1.000000 -0.402066
v -0.842281 1.000000 -0.273674
v -0.874723 1.000000 -0.138543
v -0.885627 1.000000 -0.000000
v -0.874723 1.000000 0.138542
v -0.842281 1.000000 0.273674
v -0.789100 1.000000 0.402066
v -0.716487 1.000000 0.520558
v -0.626233 1.000000 0.626233
v -0.520558 1.000000 0.716487
v -0.402066 1.000000 0.789100
v -0.273674 1.000000 0.842281
v -0.138543 1.000000 0.874723
v -0.000000 1.000000 0.885627
v 0.138543 1.000000 0.874723
v 0.273674 1.000000 0.842281
v 0.402066 1.000000 0.789100
v 0.520558 1.000000 0.716487
v 0.626233 1.000000 0.626233
v 0.716487 1.000000 0.520559
v 0.789100 1.000000 0.402066
v 0.842281 1.000000 0.273674
v 0.874723 1.000000 0.138543
v 0.885627 1.000000 0.000000
vt 0.577163 0.144029
vt 0.574301 0.132108
vt 0.569610 0.120782
vt 0.563205 0.110329
vt 0.555243 0.101007
vt 0.545921 0.093046
vt 0.535468 0.086640
vt 0.524142 0.081949
vt 0.512221 0.079087
vt 0.500000 0.078125
vt 0.487779 0.079087
vt 0.475858 0.081949
vt 0.464532 0.086640
vt 0.454079 0.093046
vt 0.444757 0.101007
vt 0.436796 0.110329
vt 0.430390 0.120782
vt 0.425699 0.132108
vt 0.422837 0.144029
vt 0.421875 0.156250
vt 0.422837 0.168471
vt 0.425699 0.180392
vt 0.430390 0.191718
vt 0.436796 0.202171
vt 0.444757 0.211493
vt 0.454079 0.219454
vt 0.464532 0.225860
vt 0.475858 0.230551
vt 0.487779 0.233413
vt 0.500000 0.234375
vt 0.512221 0.233413
vt 0.524142 0.230551
vt 0.535468 0.225860
vt 0.545921 0.219454
vt 0.555243 0.211493
vt 0.563204 0.202171
vt 0.569610 0.191718
vt 0.574301 0.180392
vt 0.577163 0.168471
vt 0.578125 0.156250
vt 0.654326 0.131807
vt 0.648603 0.107966
vt 0.639220 0.085314
vt 0.626409 0.064409
vt 0.610486 0.045765
vt 0.591842 0.029841
vt 0.570936 0.017030
vt 0.548284 0.007647
vt 0.524443 0.001924
vt 0.500000 -0.000000
vt 0.475557 0.001924
vt 0.451716 0.007647
vt 0.429064 0.017030
vt 0.408159 0.029841
vt 0.389515 0.045764
vt 0.373591 0.064408
vt 0.360780 0.085314
vt 0.351397 0.107966
vt 0.345674 0.131807
vt 0.343750 0.156250
vt 0.345674 0.180693
vt 0.351397 0.204534
vt 0.360780 0.227186
vt 0.373591 0.248091
vt 0.389515 0.266735
vt 0.408159 0.282659
vt 0.429064 0.295470
vt 0.451716 0.304853
vt 0.475557 0.310576
vt 0.500000 0.312500
vt 0.524443 0.310576
vt 0.548284 0.304853
vt 0.570936 0.295470
vt 0.591841 0.282659
vt 0.610485 0.266735
vt 0.626409 0.248091
vt 0.639220 0.227186
vt 0.648603 0.204534
vt 0.654326 0.180693
vt 0.656250 0.156250
vt 0.375000 0.312500
vt 0.381250 0.312500
vt 0.387500 0.312500
vt 0.393750 0.312500
vt 0.400000 0.312500
vt 0.406250 0.312500
vt 0.412500 0.312500
vt 0.418750 0.312500
vt 0.425000 0.312500
vt 0.431250 0.312500
vt 0.437500 0.312500
vt 0.443750 0.312500
vt 0.450000 0.312500
vt 0.456250 0.312500
vt 0.462500 0.312500
vt 0.468750 0.312500
vt 0.475000 0.312500
vt 0.481250 0.312500
vt 0.487500 0.312500
vt 0.493750 0.312500
vt 0.500000 0.312500
vt 0.506250 0.312500
vt 0.512500 0.312500
vt 0.518750 0.312500
vt 0.525000 0.312500
vt 0.531250 0.312500
vt 0.537500 0.312500
vt 0.543750 0.312500
vt 0.550000 0.312500
vt 0.556250 0.312500
vt 0.562500 0.312500
vt 0.568750 0.312500
vt 0.575000 0.312500
vt 0.581250 0.312500
vt 0.587500 0.312500
vt 0.593750 0.312500
vt 0.600000 0.312500
vt 0.606250 0.312500
vt 0.612500 0.312500
vt 0.618750 0.312500
vt 0.625000 0.312500
vt 0.375000 0.688440
vt 0.381250 0.688440
vt 0.387500 0.688440
vt 0.393750 0.688440
vt 0.400000 0.688440
vt 0.406250 0.688440
vt 0.412500 0.688440
vt 0.418750 0.688440
vt 0.425000 0.688440
vt 0.431250 0.688440
vt 0.437500 0.688440
vt 0.443750 0.688440
vt 0.450000 0.688440
vt 0.456250 0.688440
vt 0.462500 0.688440
vt 0.468750 0.688440
vt 0.475000 0.688440
vt 0.481250 0.688440
vt 0.487500 0.688440
vt 0.493750 0.688440
vt 0.500000 0.688440
vt 0.506250 0.688440
vt 0.512500 0.688440
vt 0.518750 0.688440
vt 0.525000 0.688440
vt 0.531250 0.688440
vt 0.537500 0.688440
vt 0.543750 0.688440
vt 0.550000 0.688440
vt 0.556250 0.688440
vt 0.562500 0.688440
vt 0.568750 0.688440
vt 0.575000 0.688440
vt 0.581250 0.688440
vt 0.587500 0.688440
vt 0.593750 0.688440
vt 0.600000 0.688440
vt 0.606250 0.688440
vt 0.612500 0.688440
vt 0.618750 0.688440
vt 0.625000 0.688440
vt 0.654326 0.819307
vt 0.648603 0.795466
vt 0.639220 0.772814
vt 0.626409 0.751909
vt 0.610486 0.733265
vt 0.591842 0.717341
vt 0.570936 0.704530
vt 0.548284 0.695147
vt 0.524443 0.689424
vt 0.500000 0.687500
vt 0.475557 0.689424
vt 0.451716 0.695147
vt 0.429064 0.704530
vt 0.408159 0.717341
vt 0.389515 0.733264
vt 0.373591 0.751908
vt 0.360780 0.772814
vt 0.351397 0.795466
vt 0.345674 0.819307
vt 0.343750 0.843750
vt 0.345674 0.868193
vt 0.351397 0.892034
vt 0.360780 0.914686
vt 0.373591 0.935591
vt 0.389515 0.954235
vt 0.408159 0.970159
vt 0.429064 0.982970
vt 0.451716 0.992353
vt 0.475557 0.998076
vt 0.500000 1.000000
vt 0.524443 0.998076
vt 0.548284 0.992353
vt 0.570936 0.982970
vt 0.591841 0.970159
vt 0.610485 0.954235
vt 0.626409 0.935591
vt 0.639220 0.914686
vt 0.648603 0.892034
vt 0.654326 0.868193
vt 0.656250 0.843750
vt 0.577163 0.831529
vt 0.574301 0.819608
vt 0.569610 0.808282
vt 0.563205 0.797829
vt 0.555243 0.788507
vt 0.545921 0.780546
vt 0.535468 0.774140
vt 0.524142 0.769449
vt 0.512221 0.766587
vt 0.500000 0.765625
vt 0.487779 0.766587
vt 0.475858 0.769449
vt 0.464532 0.774140
vt 0.454079 0.780545
vt 0.444757 0.788507
vt 0.436796 0.797829
vt 0.430390 0.808282
vt 0.425699 0.819608
vt 0.422837 0.831529
vt 0.421875 0.843750
vt 0.422837 0.855971
vt 0.425699 0.867892
vt 0.430390 0.879218
vt 0.436796 0.889671
vt 0.444757 0.898993
vt 0.454079 0.906954
vt 0.464532 0.913360
vt 0.475858 0.918051
vt 0.487779 0.920913
vt 0.500000 0.921875
vt 0.512221 0.920913
vt 0.524142 0.918051
vt 0.535468 0.913360
vt 0.545921 0.906954
vt 0.555243 0.898993
vt 0.563204 0.889671
vt 0.569610 0.879218
vt 0.574301 0.867892
vt 0.577163 0.855971
vt 0.578125 0.843750
vn 0.000000 -1.000000 0.000000
vn 0.000000 -1.000000 0.000000
vn 0.000000 -1.000000 0.000000
vn 0.000000 -1.000000 0.000000
vn 0.000000 -1.000000 0.000000
vn 0.000000 -1.000000 0.000000
vn 0.000000 -1.000000 0.000000
vn 0.000000 -1.000000 0.000000
vn 0.000000 -1.000000 0.000000
vn 0.000000 -1.000000 0.000000
vn 0.000000 -1.000000 0.000000
vn 0.000000 -1.000000 0.000000
vn 0.000000 -1.000000 0.000000
vn 0.000000 -1.000000 0.000000
vn 0.000000 -1.000000 0.000000
vn 0.000000 -1.000000 0.000000
vn 0.000000 -1.000000 0.000000
vn 0.000000 -1.000000 0.000000
vn 0.000000 -1.000000 -0.000000
vn 0.000000 -1.000000 -0.000000
vn 0.000000 -1.000000 -0.000000
vn 0.000000 -1.000000 -0.000000
vn 0.000000 -1.000000 0.000000
vn 0.000000 -1.000000 0.000000
vn 0.000000 -1.000000 0.000000
vn 0.000000 -1.000000 0.000000
vn 0.000000 -1.000000 0.000000
vn 0.000000 -1.000000 0.000000
vn 0.000000 -1.000000 0.000000
vn 0.000000 -1.000000 0.000000
vn 0.000000 -1.000000 0.000000
vn 0.000000 -1.000000 0.000000
vn 0.000000 -1.000000 0.000000
vn 0.000000 -1.000000 0.000000
vn 0.000000 -1.000000 0.000000
vn 0.000000 -1.000000 0.000000
vn 0.000000 -1.000000 0.000000
vn 0.000000 -1.000000 0.000000
vn 0.000000 -1.000000 0.000000
vn 0.000000 -1.000000 0.000000
vn 0.000000 -1.000000 0.000000
vn 0.000000 -1.000000 0.000000
vn 0.000000 -1.000000 0.000000
vn 0.000000 -1.000000 0.000000
vn 0.000000 -1.000000 0.000000
vn 0.000000 -1.000000 0.000000
vn 0.000000 -1.000000 0.000000
vn 0.000000 -1.000000 0.000000
vn 0.000000 -1.000000 0.000000
vn 0.000000 -1.000000 0.000000
vn 0.000000 -1.000000 0.000000
vn 0.000000 -1.000000 0.000000
vn 0.000000 -1.000000 0.000000
vn 0.000000 -1.000000 0.000000
vn 0.000000 -1.000000 0.000000
vn 0.000000 -1.000000 0.000000
vn 0.000000 -1.000000 0.000000
vn 0.000000 -1.000000 0.000000
vn 0.000000 -1.000000 -0.000000
vn 0.000000 -1.000000 -0.000000
vn 0.000000 -1.000000 -0.000000
vn 0.000000 -1.000000 -0.000000
vn 0.000000 -1.000000 0.000000
vn 0.000000 -1.000000 0.000000
vn 0.000000 -1.000000 0.000000
vn 0.000000 -1.000000 0.000000
vn 0.000000 -1.000000 0.000000
vn 0.000000 -1.000000 0.000000
vn 0.000000 -1.000000 0.000000
vn 0.000000 -1.000000 0.000000
vn 0.000000 -1.000000 0.000000
vn 0.000000 -1.000000 0.000000
vn 0.000000 -1.000000 0.000000
vn 0.000000 -1.000000 0.000000
vn 0.000000 -1.000000 0.000000
vn 0.000000 -1.000000 0.000000
vn 0.000000 -1.000000 0.000000
vn 0.000000 -1.000000 0.000000
vn 0.000000 -1.000000 0.000000
vn 0.000000 -1.000000 0.000000
vn 0.987689 0.000000 -0.156433
vn 0.951057 0.000000 -0.309017
vn 0.951057 0.000000 -0.309017
vn 0.987689 0.000000 -0.156433
vn 0.891007 0.000000 -0.453990
vn 0.891007 0.000000 -0.453990
vn 0.809017 0.000000 -0.587785
vn 0.809017 0.000000 -0.587785
vn 0.707107 0.000000 -0.707107
vn 0.707107 0.000000 -0.707107
vn 0.587785 0.000000 -0.809017
vn 0.587785 0.000000 -0.809017
vn 0.453991 0.000000 -0.891007
vn 0.453991 0.000000 -0.891007
vn 0.309017 0.000000 -0.951056
vn 0.309017 0.000000 -0.951056
vn 0.156435 0.000000 -0.987688
vn 0.156435 0.000000 -0.987688
vn 0.000000 0.000000 -1.000000
vn 0.000000 0.000000 -1.000000
vn -0.156434 0.000000 -0.987688
vn -0.156434 0.000000 -0.987688
vn -0.309017 0.000000 -0.951057
vn -0.309017 0.000000 -0.951057
vn -0.453990 0.000000 -0.891007
vn -0.453990 0.000000 -0.891007
vn -0.587785 0.000000 -0.809017
vn -0.587785 0.000000 -0.809017
vn -0.707107 0.000000 -0.707107
vn -0.707107 0.000000 -0.707107
vn -0.809017 0.000000 -0.587785
vn -0.809017 0.000000 -0.587785
vn -0.891007 0.000000 -0.453991
vn -0.891007 0.000000 -0.453991
vn -0.951057 0.000000 -0.309017
vn -0.951057 0.000000 -0.309017
vn -0.987688 0.000000 -0.156434
vn -0.987688 0.000000 -0.156434
vn -1.000000 0.000000 -0.000000
vn -1.000000 0.000000 -0.000000
vn -0.987688 0.000000 0.156434
vn -0.987688 0.000000 0.156434
vn -0.951057 0.000000 0.309017
vn -0.951057 0.000000 0.309017
vn -0.891007 0.000000 0.453990
vn -0.891007 0.000000 0.453990
vn -0.809017 0.000000 0.587785
vn -0.809017 0.000000 0.587785
vn -0.707107 -0.000000 0.707107
vn -0.707107 -0.000000 0.707107
vn -0.587786 -0.000000 0.809017
vn -0.587786 -0.000000 0.809017
vn -0.453991 -0.000000 0.891007
vn -0.453991 -0.000000 0.891007
vn -0.309017 -0.000000 0.951056
vn -0.309017 -0.000000 0.951057
vn -0.156434 0.000000 0.987688
vn -0.156434 0.000000 0.987688
vn -0.000000 -0.000000 1.000000
vn 0.000000 -0.000000 1.000000
vn 0.156434 0.000000 0.987688
vn 0.156434 0.000000 0.987688
vn 0.309017 0.000000 0.951057
vn 0.309017 0.000000 0.951057
vn 0.453991 -0.000000 0.891006
vn 0.453991 -0.000000 0.891006
vn 0.587785 -0.000000 0.809017
vn 0.587785 -0.000000 0.809017
vn 0.707107 -0.000000 0.707107
vn 0.707107 -0.000000 0.707107
vn 0.809017 -0.000000 0.587785
vn 0.809017 -0.000000 0.587785
vn 0.891007 0.000000 0.453991
vn 0.891007 0.000000 0.453991
vn 0.951057 0.000000 0.309017
vn 0.951057 0.000000 0.309017
vn 0.987688 0.000000 0.156434
vn 0.987688 0.000000 0.156434
vn 1.000000 0.000000 0.000002
vn 1.000000 0.000000 0.000002
vn 0.000000 1.000000 0.000000
vn 0.000000 1.000000 0.000000
vn 0.000000 1.000000 0.000000
vn 0.000000 1.000000 0.000000
vn 0.000000 1.000000 0.000000
vn 0.000000 1.000000 0.000000
vn 0.000000 1.000000 0.000000
vn 0.000000 1.000000 0.000000
vn 0.000000 1.000000 0.000000
vn 0.000000 1.000000 0.000000
vn 0.000000 1.000000 0.000000
vn 0.000000 1.000000 0.000000
vn 0.000000 1.000000 0.000000
vn 0.000000 1.000000 0.000000
vn 0.000000 1.000000 0.000000
vn 0.000000 1.000000 0.000000
vn 0.000000 1.000000 0.000000
vn 0.000000 1.000000 0.000000
vn 0.000000 1.000000 -0.000000
vn 0.000000 1.000000 -0.000000
vn 0.000000 1.000000 -0.000000
vn 0.000000 1.000000 -0.000000
vn 0.000000 1.000000 0.000000
vn 0.000000 1.000000 0.000000
vn 0.000000 1.000000 0.000000
vn 0.000000 1.000000 0.000000
vn 0.000000 1.000000 0.000000
vn 0.000000 1.000000 0.000000
vn 0.000000 1.000000 0.000000
vn 0.000000 1.000000 0.000000
vn 0.000000 1.000000 0.000000
vn 0.000000 1.000000 0.000000
vn 0.000000 1.000000 0.000000
vn 0.000000 1.000000 0.000000
vn 0.000000 1.000000 0.000000
vn 0.000000 1.000000 0.000000
vn 0.000000 1.000000 0.000000
vn 0.000000 1.000000 0.000000
vn 0.000000 1.000000 0.000000
vn 0.000000 1.000000 0.000000
vn 0.000000 1.000000 0.000000
vn 0.000000 1.000000 0.000000
vn 0.000000 1.000000 0.000000
vn 0.000000 1.000000 0.000000
vn 0.000000 1.000000 0.000000
vn 0.000000 1.000000 0.000000
vn 0.000000 1.000000 0.000000
vn 0.000000 1.000000 0.000000
vn 0.000000 1.000000 0.000000
vn 0.000000 1.000000 0.000000
vn 0.000000 1.000000 0.000000
vn 0.000000 1.000000 0.000000
vn 0.000000 1.000000 0.000000
vn 0.000000 1.000000 0.000000
vn 0.000000 1.000000 0.000000
vn 0.000000 1.000000 0.000000
vn 0.000000 1.000000 0.000000
vn 0.000000 1.000000 0.000000
vn 0.000000 1.000000 0.000000
vn 0.000000 1.000000 0.000000
vn 0.000000 1.000000 0.000000
vn 0.000000 1.000000 0.000000
vn 0.000000 1.000000 0.000000
vn 0.000000 1.000000 0.000000
vn 0.000000 1.000000 0.000000
vn 0.000000 1.000000 0.000000
vn 0.000000 1.000000 0.000000
vn 0.000000 1.000000 0.000000
vn 0.000000 1.000000 0.000000
vn 0.000000 1.000000 0.000000
vn 0.000000 1.000000 0.000000
vn 0.000000 1.000000 0.000000
vn 0.000000 1.000000 0.000000
vn 0.000000 1.000000 0.000000
vn 0.000000 1.000000 0.000000
vn 0.000000 1.000000 0.000000
vn 0.000000 1.000000 0.000000
vn 0.000000 1.000000 0.000000
vn 0.000000 1.000000 0.000000
vn 0.000000 1.000000 0.000000
s 1
g pCylinder2
usemtl lambert2SG
f 5/5/5 6/6/6 46/46/7 45/45/8
f 6/6/6 7/7/9 47/47/10 46/46/7
f 7/7/9 8/8/11 48/48/12 47/47/10
f 8/8/11 9/9/13 49/49/14 48/48/12
f 9/9/13 10/10/15 50/50/16 49/49/14
f 10/10/15 11/11/17 51/51/18 50/50/16
f 11/11/17 12/12/19 52/52/20 51/51/18
f 12/12/19 13/13/21 53/53/22 52/52/20
f 13/13/21 14/14/23 54/54/24 53/53/22
f 14/14/23 15/15/25 55/55/26 54/54/24
f 15/15/25 16/16/27 56/56/28 55/55/26
f 16/16/27 17/17/29 57/57/30 56/56/28
f 17/17/29 18/18/31 58/58/32 57/57/30
f 18/18/31 19/19/33 59/59/34 58/58/32
f 19/19/33 20/20/35 60/60/36 59/59/34
f 20/20/35 21/21/37 61/61/38 60/60/36
f 21/21/37 22/22/39 62/62/40 61/61/38
f 22/22/39 23/23/41 63/63/42 62/62/40
f 23/23/41 24/24/43 64/64/44 63/63/42
f 24/24/43 25/25/45 65/65/46 64/64/44
f 25/25/45 26/26/47 66/66/48 65/65/46
f 26/26/47 27/27/49 67/67/50 66/66/48
f 27/27/49 28/28/51 68/68/52 67/67/50
f 28/28/51 29/29/53 69/69/54 68/68/52
f 29/29/53 30/30/55 70/70/56 69/69/54
f 30/30/55 31/31/57 71/71/58 70/70/56
f 31/31/57 32/32/59 72/72/60 71/71/58
f 32/32/59 33/33/61 73/73/62 72/72/60
f 33/33/61 34/34/63 74/74/64 73/73/62
f 34/34/63 35/35/65 75/75/66 74/74/64
f 35/35/65 36/36/67 76/76/68 75/75/66
f 36/36/67 37/37/69 77/77/70 76/76/68
f 37/37/69 38/38/71 78/78/72 77/77/70
f 38/38/71 39/39/73 79/79/74 78/78/72
f 39/39/73 40/40/75 80/80/76 79/79/74
f 40/40/75 41/41/77 81/81/78 80/80/76
f 41/41/77 42/42/79 82/82/80 81/81/78
f 42/42/79 43/43/81 83/83/82 82/82/80
f 43/43/81 44/44/83 84/84/84 83/83/82
f 44/44/83 5/5/5 45/45/8 84/84/84
s 2
f 45/85/85 46/86/86 86/127/87 85/126/88
f 46/86/86 47/87/89 87/128/90 86/127/87
f 47/87/89 48/88/91 88/129/92 87/128/90
f 48/88/91 49/89/93 89/130/94 88/129/92
f 49/89/93 50/90/95 90/131/96 89/130/94
f 50/90/95 51/91/97 91/132/98 90/131/96
f 51/91/97 52/92/99 92/133/100 91/132/98
f 52/92/99 53/93/101 93/134/102 92/133/100
f 53/93/101 54/94/103 94/135/104 93/134/102
f 54/94/103 55/95/105 95/136/106 94/135/104
f 55/95/105 56/96/107 96/137/108 95/136/106
f 56/96/107 57/97/109 97/138/110 96/137/108
f 57/97/109 58/98/111 98/139/112 97/138/110
f 58/98/111 59/99/113 99/140/114 98/139/112
f 59/99/113 60/100/115 100/141/116 99/140/114
f 60/100/115 61/101/117 101/142/118 100/141/116
f 61/101/117 62/102/119 102/143/120 101/142/118
f 62/102/119 63/103/121 103/144/122 102/143/120
f 63/103/121 64/104/123 104/145/124 103/144/122
f 64/104/123 65/105/125 105/146/126 104/145/124
f 65/105/125 66/106/127 106/147/128 105/146/126
f 66/106/127 67/107/129 107/148/130 106/147/128
f 67/107/129 68/108/131 108/149/132 107/148/130
f 68/108/131 69/109/133 109/150/134 108/149/132
f 69/109/133 70/110/135 110/151/136 109/150/134
f 70/110/135 71/111/137 111/152/138 110/151/136
f 71/111/137 72/112/139 112/153/140 111/152/138
f 72/112/139 73/113/141 113/154/142 112/153/140
f 73/113/141 74/114/143 114/155/144 113/154/142
f 74/114/143 75/115/145 115/156/146 114/155/144
f 75/115/145 76/116/147 116/157/148 115/156/146
f 76/116/147 77/117/149 117/158/150 116/157/148
f 77/117/149 78/118/151 118/159/152 117/158/150
f 78/118/151 79/119/153 119/160/154 118/159/152
f 79/119/153 80/120/155 120/161/156 119/160/154
f 80/120/155 81/121/157 121/162/158 120/161/156
f 81/121/157 82/122/159 122/163/160 121/162/158
f 82/122/159 83/123/161 123/164/162 122/163/160
f 83/123/161 84/124/163 124/165/164 123/164/162
f 84/124/163 45/125/85 85/166/88 124/165/164
s 3
f 85/205/165 86/204/166 126/244/167 125/245/168
f 86/204/166 87/203/169 127/243/170 126/244/167
f 87/203/169 88/202/171 128/242/172 127/243/170
f 88/202/171 89/201/173 129/241/174 128/242/172
f 89/201/173 90/200/175 130/240/176 129/241/174
f 90/200/175 91/199/177 131/239/178 130/240/176
f 91/199/177 92/198/179 132/238/180 131/239/178
f 92/198/179 93/197/181 133/237/182 132/238/180
f 93/197/181 94/196/183 134/236/184 133/237/182
f 94/196/183 95/195/185 135/235/186 134/236/184
f 95/195/185 96/194/187 136/234/188 135/235/186
f 96/194/187 97/193/189 137/233/190 136/234/188
f 97/193/189 98/192/191 138/232/192 137/233/190
f 98/192/191 99/191/193 139/231/194 138/232/192
f 99/191/193 100/190/195 140/230/196 139/231/194
f 100/190/195 101/189/197 141/229/198 140/230/196
f 101/189/197 102/188/199 142/228/200 141/229/198
f 102/188/199 103/187/201 143/227/202 142/228/200
f 103/187/201 104/186/203 144/226/204 143/227/202
f 104/186/203 105/185/205 145/225/206 144/226/204
f 105/185/205 106/184/207 146/224/208 145/225/206
f 106/184/207 107/183/209 147/223/210 146/224/208
f 107/183/209 108/182/211 148/222/212 147/223/210
f 108/182/211 109/181/213 149/221/214 148/222/212
f 109/181/213 110/180/215 150/220/216 149/221/214
f 110/180/215 111/179/217 151/219/218 150/220/216
f 111/179/217 112/178/219 152/218/220 151/219/218
f 112/178/219 113/177/221 153/217/222 152/218/220
f 113/177/221 114/176/223 154/216/224 153/217/222
f 114/176/223 115/175/225 155/215/226 154/216/224
f 115/175/225 116/174/227 156/214/228 155/215/226
f 116/174/227 117/173/229 157/213/230 156/214/228
f 117/173/229 118/172/231 158/212/232 157/213/230
f 118/172/231 119/171/233 159/211/234 158/212/232
f 119/171/233 120/170/235 160/210/236 159/211/234
f 120/170/235 121/169/237 161/209/238 160/210/236
f 121/169/237 122/168/239 162/208/240 161/209/238
f 122/168/239 123/167/241 163/207/242 162/208/240
f 123/167/241 124/206/243 164/246/244 163/207/242
f 124/206/243 85/205/165 125/245/168 164/246/244
